<?xml version="1.0" encoding="utf-8"?>
<!-- Generator: Adobe Illustrator 21.1.0, SVG Export Plug-In . SVG Version: 6.00 Build 0)  -->
<svg version="1.1" id="Calque_1" xmlns="http://www.w3.org/2000/svg" xmlns:xlink="http://www.w3.org/1999/xlink" x="0px" y="0px"
	 viewBox="0 0 432 432" style="enable-background:new 0 0 432 432;" xml:space="preserve">
<style type="text/css">
	.st0{fill:#65C8D0;}
	.st1{fill:#BA9BC9;}
	.st2{fill:#DB8FA2;}
	.st3{fill:#CC9C5E;}
	.st4{fill:#8BD6D9;}
	.st5{fill:#E8A6B0;}
	.st6{fill:#D6CAC4;}
	.st7{fill:#333333;}
	.st8{fill:#E9AA89;}
	.st9{fill:#AF947D;}
	.st10{fill:#DBB57B;}
	.st11{fill:#B28091;}
	.st12{fill:#8E6470;}
	.st13{fill:#7E9884;}
	.st14{fill:#6A7C6D;}
	.st15{fill:#E0C26E;}
	.st16{fill:#788A9B;}
	.st17{fill:#A5B8AA;}
	.st18{fill:#C48988;}
	.st19{fill:#8C8480;}
	.st20{fill:#93A886;}
	.st21{fill:#A388A3;}
	.st22{fill:#A1C3C9;}
	.st23{fill:#D29C7E;}
</style>
<g>
	<g>
		<path class="st19" d="M305.5,109.3c-0.4-1.5-1.8-1.8-3-0.8c-0.6,0.5-1.1,1.2-1.5,1.9c-0.9,1.5-1.7,3-2.5,4.5c-1.4,2.6-3,5-4.9,7.2
			c-0.2,0.3-0.5,0.5-0.9,1c0.3-3.9,0.6-7.6,0.8-11.3c0.1-2.8,0.1-5.7,0-8.5c-0.1-3.8-0.8-7.5-1.5-11.2c-0.9-4.6-2.3-9-4.9-12.9
			c-2.9-4.4-6.6-8-10.8-11.1c-1.7-1.2-3.5-2.2-5.5-2.7c-1.2-0.3-2.4-0.5-3.6-0.4c-1.7,0.2-2.4,1-2.5,2.8c-0.1,1.8,0.4,3.5,1.6,4.9
			c0.7,0.8,1.5,1.7,2.3,2.4c1.7,1.5,3.4,2.9,5.2,4.4c1.9,1.6,3.5,3.5,4.8,5.7c1.8,3.2,2.9,6.6,3.3,10.2c0.2,1.6,0.3,3.2,0.2,4.7
			c-0.1,1.5-1,1.8-2.1,0.9c-0.9-0.7-1.8-1.5-2.7-2.2c-1.5-1.2-3.1-2.3-4.9-3.1c-0.6-0.2-1.1-0.4-1.7-0.5c-1.7-0.2-3,0.8-3,2.6
			c0,0.9,0.2,1.8,0.6,2.6c0.7,1.4,1.8,2.6,2.9,3.8c1.3,1.4,2.6,2.7,3.9,4.2c2.1,2.4,3.9,5.1,5,8.1c0.9,2.5,1.4,5,1,7.6
			c-0.7,4.8-2.7,8.9-6.2,12.3c-5.3,5.2-11.2,9.7-17.5,13.6c-0.1,0.1-0.3,0.1-0.5,0.2c0.2-1.3,0.5-2.5,0.5-3.7c0.1-2.4,0.1-4.7,0-7.1
			c-0.1-3.2-0.6-6.3-1.4-9.4c-0.5-2-1.2-3.9-2.3-5.6c-0.4-0.6-0.9-1.2-1.4-1.7c-0.7-0.6-1.6-0.4-2,0.4c-0.2,0.5-0.4,1.1-0.4,1.6
			c-0.1,2.2-0.1,4.5-0.2,6.7c-0.1,6.1-1.4,11.9-3.9,17.5c-1.7,3.7-3.7,7.3-5.6,10.9c-3.4,6.1-6.4,12.5-8.3,19.3
			c0,0.1-0.1,0.2-0.2,0.3c-3.6-0.5-7.3-0.7-11-0.6c-3.7,0.2-7.3,0.5-11,0.7c-0.6-1.9-1.3-3.9-2-5.8c-1.9-5.2-4.4-10.1-7.1-15
			c-1.9-3.3-3.7-6.7-5.2-10.2c-1.5-3.4-2.6-6.9-3.2-10.6c-0.5-3-0.6-6.1-0.7-9.2c0-1.3,0-2.7-0.1-4c0-0.6-0.2-1.1-0.4-1.6
			c-0.4-0.8-1.2-1-2-0.5c-0.4,0.3-0.9,0.8-1.1,1.3c-0.6,1.1-1.2,2.3-1.7,3.5c-1,2.6-1.6,5.2-1.9,8c-0.6,4.7-0.9,9.3,0.1,14
			c0,0.2,0,0.4,0,0.7c-0.2-0.1-0.3-0.1-0.3-0.1c-6.4-4-12.4-8.5-17.7-13.8c-2.4-2.4-4.1-5.2-5.2-8.5c-1.3-4-1.2-7.9,0.4-11.9
			c1.1-2.8,2.8-5.3,4.8-7.6c1.4-1.6,2.9-3,4.2-4.6c0.9-1,1.7-2.2,2.4-3.3c0.5-0.8,0.7-1.7,0.6-2.7c-0.1-1.3-0.8-2.2-2.1-2.4
			c-0.9-0.2-1.7,0-2.5,0.4c-1.6,0.7-3.1,1.6-4.4,2.7c-1,0.8-2,1.7-3.1,2.5c-0.5,0.4-1,0.9-1.6,0.6c-0.7-0.3-0.7-1-0.8-1.6
			c-0.1-1.9,0.1-3.8,0.4-5.7c1.2-6.4,3.9-11.9,9.3-15.8c1.7-1.3,3.3-2.8,4.9-4.3c0.8-0.8,1.5-1.7,2.1-2.7c0.7-1.2,0.9-2.6,0.7-3.9
			c-0.2-1.4-0.9-2.2-2.3-2.3c-1-0.1-2-0.1-2.9,0.1c-2.6,0.5-4.9,1.7-7,3.3c-2.6,1.9-4.9,4.1-7.1,6.5c-2.6,3-4.9,6.3-6.2,10.1
			c-1,2.8-1.6,5.7-2.2,8.6c-1.6,8.1-1.5,16.2-0.8,24.4c0.1,1.6,0.3,3.1,0.4,4.7c-0.4-0.2-0.7-0.4-0.9-0.7c-1.9-2.2-3.5-4.6-4.9-7.2
			c-0.8-1.5-1.6-2.9-2.4-4.3c-0.4-0.7-0.9-1.4-1.5-1.9c-1.3-1.3-2.8-0.9-3.3,0.8c-0.1,0.2-0.1,0.4-0.1,0.6c-0.1,0.8-0.2,1.6-0.1,2.4
			c0.2,5,1.4,9.9,3.1,14.6c1.5,4.3,3.3,8.4,5.9,12.2c3.9,5.7,9,10,14.9,13.5c3.3,1.9,6.7,3.5,10.1,5.1c3.6,1.7,7.2,3.4,10.7,5.2
			c7.7,4.1,14.2,9.6,19.1,17c0.2,0.3,0.4,0.6,0.7,1c-1.5,0.1-2.9,0.3-4.2,0.4c-1.9,0.2-3.6-0.2-5.2-1.2c-1.3-0.8-2.6-1.6-3.8-2.6
			c-1.6-1.4-3.2-2.8-4.7-4.3c-7-6.9-15.2-11.6-24.5-14.8c-2.2-0.8-4.4-1.4-6.8-1.5c-2.5-0.1-3.2,0.4-3.6,2.9
			c-0.3,2.1-0.5,4.2-0.6,6.2c-0.1,3.5,0.2,6.9,0.6,10.4c0.5,3.9,1.3,7.8,2.7,11.5c3.1,7.6,8,13.5,15.5,17.2c0.3,0.1,0.6,0.3,0.9,0.5
			c2.4,1.4,4.9,2.6,7.4,3.7c1.7,0.7,3.3,1.5,4.9,2.3c3,1.7,4.4,4.6,3.8,8c-0.3,1.4-0.6,2.8-1,4.2c-0.6,2.2-1.5,4.4-2,6.7
			c-0.7,3.1-1.3,6.3-1.9,9.5c-0.7,3.3-0.9,6.6-0.9,10c0,1.9,0.2,3.7,0.4,5.5c0.2,2.5,0.6,5,1.4,7.3c0.5,1.5,1,3.1,1.5,4.6
			c1.1,3.3,1.6,6.6,1.5,10.1c-0.1,3-0.7,5.9-1.5,8.8c-1,3.5-1.8,7-2.3,10.6c-0.7,4.8-0.1,9.5,0.6,14.2c0.3,1.9,0.7,3.8,1.2,5.6
			c1.9,6.5,4.5,12.8,7.6,18.8c2.4,4.6,5.2,8.9,8.6,12.9c1.8,2,3.5,4,5.2,6c0.3,0.3,0.5,0.6,0.8,0.9c2.5,2.1,4.9,4.3,7.5,6.4
			c2.4,2,5.1,3.6,8.2,4.6c1.4,0.5,2.8,1,4.2,0.8c2.4-0.3,4.4-1.3,5.8-3.3c2.5-3.6,5.1-7.1,7.4-10.9c4.1-6.6,7.3-13.7,10.4-20.8
			c2.6-6,4.9-12,6.6-18.4c1.1-4.3,2.1-8.7,2.1-13.2c0-3.8-0.3-7.5-1.6-11c-0.6-1.5-1.1-3.1-1.7-4.6c-1.1-2.8-1.6-5.8-1.3-8.8
			c0.2-2.4,0.5-4.7,0.8-7c0.5-4.2,1-8.4,1.5-12.7c0.4-3.7,0.4-7.4,0-11c-0.4-3.6-1.3-7.1-2.5-10.5c-0.8-2.2-1.5-4.3-1.8-6.6
			c-0.3-2.2-0.6-4.4-0.6-6.6c-0.1-2.1,0.5-4.1,1.1-6.1c1.1-3.2,3.4-5,6.6-5.6c2.2-0.4,4.4-0.7,6.6-1c6.4-0.8,12.2-3.1,17.3-7
			c8.5-6.5,12.7-15,12.2-25.8c-0.2-3.1-0.7-6.2-1.6-9.3c-0.5-1.5-1-3.1-1.8-4.5c-0.9-1.7-2.1-2.1-3.9-1.4c-0.9,0.3-1.8,0.7-2.7,1.1
			c-15,6.2-17.1,7.6-27.2,14.8c-0.2,0.2-0.4,0.3-0.7,0.5c-1.5,0.9-2.9,1.8-4.5,2.6c-1.2,0.6-2.6,1.1-3.9,1.4c-0.8,0.2-1.7,0.4-2.6,0
			c0.2-0.3,0.3-0.5,0.4-0.7c4.4-6.8,10.1-12.2,17.1-16.3c3.7-2.2,7.5-4.1,11.4-5.8c4.2-1.9,8.3-3.8,12.2-6.1
			c8.6-5,15.1-12,18.9-21.3c2.5-6,4.4-12.2,4.7-18.8C305.9,111.5,305.8,110.3,305.5,109.3z M278.3,77.1c-1.1-1.5-2.4-2.8-4-3.8
			c-0.2-0.1-0.4-0.3-0.6-0.4c-0.4-0.3-0.4-0.8-0.2-1.2c0.2-0.4,0.7-0.6,1.1-0.4c0.3,0.1,0.6,0.3,0.9,0.5c1.6,1.1,3,2.4,4.1,4
			c4.6,6.5,7.8,13.6,8.7,21.5c0.4,3.1,0.3,6.3,0.5,9.5c0,0.3-0.1,0.5-0.1,0.8c-0.2,0.5-0.5,0.7-1,0.7c-0.5-0.1-0.8-0.4-0.8-0.9
			c0-0.4,0-0.7,0-1.1c0-1,0-2.1,0-3.1c-0.2-3.6-0.4-7.1-1.4-10.6C284,86.9,281.7,81.8,278.3,77.1z M280.1,107.4
			c-0.5-0.7-1-1.3-1.5-2c-0.2-0.2-0.3-0.5-0.4-0.8c-0.1-0.4,0.1-0.8,0.5-0.9c0.3-0.1,0.7-0.1,0.9,0c0.2,0.1,0.4,0.3,0.6,0.5
			c3.6,4.3,5.7,9.3,6.3,14.9c0.1,0.9,0,1.8,0,2.6c0.1,2.4-0.1,4.8-0.7,7.1c-0.2,0.7-0.5,1.3-0.8,2c-0.3,0.7-0.9,0.9-1.4,0.6
			c-0.5-0.2-0.6-0.7-0.4-1.4C285.9,122,284.7,114.5,280.1,107.4z M214.3,192.5c0.6-0.1,1.1-0.2,1.7-0.2c2.7-0.1,5.5-0.1,8.2-0.2
			c1.5,0,3-0.2,4.4-0.2c1.5-0.1,2,0.3,2.2,1.8c0.1,0.4,0.1,0.9,0.1,1.3c0,0.5-0.2,0.8-0.7,1c-0.5,0.1-0.9-0.1-1.1-0.5
			c-0.1-0.1-0.1-0.2-0.1-0.3c-0.2-1-0.9-1.1-1.7-1.1c-1.8,0-3.6,0.1-5.5,0.1c0.1,4.4,0.4,8.6,0.6,12.9c1.3,0.1,2.6,0.2,3.8-0.2
			c0.9-0.2,1.6-0.6,2.1-1.4c0.3-0.5,0.7-0.8,1.2-0.7c0.6,0.1,0.9,0.6,0.9,1.2c0,1.5,0.1,3,0,4.5c0,0.6-0.4,1-0.9,1.1
			c-0.5,0-0.9-0.2-1.1-0.7c-0.2-0.4-0.4-0.8-0.8-0.8c-1.6,0-3.3,0-4.9,0c-0.2,1.7,0.2,9.9,0.6,10.9c1.8,0,3.6,0.1,5.4-0.4
			c0.9-0.3,1.6-0.8,1.7-1.8c0-0.2,0.1-0.5,0.2-0.7c0.2-0.5,0.5-0.8,1.1-0.8c0.5,0,0.9,0.4,0.9,0.9c0.1,1,0.2,1.9,0.3,2.9
			c0,0.5,0.1,0.9,0,1.4c-0.1,1-0.4,1.3-1.3,1.4c-1.2,0.1-2.3,0.3-3.5,0.3c-3.5,0.1-7.1,0.2-10.6,0.3c-0.4,0-0.8,0-1.1-0.1
			c-0.8-0.2-1.2-1.1-0.6-1.7c1.2-1.2,1.2-2.6,1.1-4c-0.4-6.3-0.6-12.5-0.7-18.8c0-1.3-0.2-2.6-0.3-3.9c-0.1-1-0.5-1.4-1.5-1.4
			c-0.9,0-1.2-0.3-1.3-1C213.2,193.1,213.6,192.7,214.3,192.5z M219.9,282.5c0.9,2.1,0.9,4.2-0.4,6.2c-1.2,1.8-3.3,2.6-5.4,2
			c-1.2-0.4-2.2-1-3-1.9c-1.2-1.4-1.9-3-2.1-4.8c-0.3-2.8,0.6-4.7,3-6.2c-0.2-0.2-0.4-0.5-0.7-0.7c-1.4-1.6-2.1-3.4-1.8-5.5
			c0.1-0.9,0.5-1.7,1.1-2.4c1.2-1.4,2.9-1.8,4.6-1c0.9,0.4,1.7,1,2.2,1.9c0.5,0.8,0.8,1.6,1.2,2.5c0.1,0.2,0.1,0.5,0.1,0.8
			c0,0.6-0.3,1-0.8,1.1c-0.5,0.1-0.9-0.2-1.1-0.7c-0.1-0.2-0.1-0.4-0.2-0.6c-0.2-0.6-0.4-1.1-0.7-1.7c-0.4-0.7-0.9-1.2-1.6-1.4
			c-0.9-0.3-1.6-0.2-2.2,0.5c-0.6,0.7-0.8,1.5-0.7,2.4c0.1,1.5,0.9,2.7,2.2,3.6c0.3,0.2,0.6,0.4,1,0.5c0.5,0.3,0.8,0.6,0.7,1.2
			c-0.1,0.5-0.5,0.8-0.9,1c-0.3,0.1-0.6,0.2-0.9,0.3c-1.8,0.6-2.7,1.8-2.6,3.7c0,1.5,0.5,2.9,1.5,4.1c0.6,0.8,1.4,1.3,2.3,1.5
			c1.6,0.4,3.1-0.4,3.6-2c0.4-1.5,0.3-2.8-0.7-4.1c-0.6,0.3-1,0.7-1.2,1.3c-0.1,0.2-0.1,0.4-0.2,0.6c-0.2,0.4-0.6,0.6-1,0.5
			c-0.5-0.1-0.7-0.4-0.8-0.8c0-0.4,0.1-0.8,0.2-1.2c0.5-1,1.3-1.7,2.2-2.3c0.5-0.3,1-0.5,1.6-0.7c0.6-0.3,1.1-0.7,1.4-1.4
			c0-0.1,0.1-0.3,0.2-0.4c0.3-0.4,0.6-0.6,1.1-0.4c0.5,0.2,0.7,0.6,0.6,1.1c-0.1,0.8-0.5,1.4-1.1,1.9c-0.3,0.3-0.7,0.6-1.2,0.9
			C219.6,281.9,219.8,282.2,219.9,282.5z M219.1,265.8c-1.1-0.2-1.6-0.6-1.8-1.7c-0.1-0.8-0.2-1.6-0.2-2.4
			c-0.2-7.9-0.4-15.7-0.6-23.6c0-1.6-0.1-3.2,0-4.8c0-1.3,0.5-1.7,1.7-1.8c0.5,0,1.1,0,1.6,0.1c1,0.2,1.4,0.6,1.5,1.6
			c0,0.5,0,0.9,0,1.4c0.1,4.8,0.1,9.6,0.2,14.5c0.1,4.6,0.3,9.1,0.5,13.7c0,0.2,0,0.5,0.1,0.8c0.7,0,1.4,0,2,0c0.5,0,1.1,0,1.6,0
			c0.6,0,1.1,0.5,1.1,1c0,0.5-0.4,1-1,1C223.5,265.7,221.3,266.2,219.1,265.8z M212,233.7c0.1,0.8,0.1,1.5,0.1,2.3
			c0,4.4,0,8.8,0,11.6c0.2,5.6,0.3,9.7,0.4,13.8c0,0.9,0,1.8,0,2.7c-0.1,1-0.4,1.4-1.4,1.6c-0.3,0.1-0.6,0.1-0.9,0.1
			c-1,0-1.6-0.3-1.8-1.3c-0.2-0.9-0.3-1.8-0.4-2.7c-0.5-6-0.6-12.1-0.6-18.1c0-3.2-0.1-6.5-0.2-9.7c0-1.2,0.2-1.6,1.4-1.8
			c0.6-0.1,1.1-0.2,1.7-0.2C211.4,232.1,211.9,232.6,212,233.7z M160.2,104.8c0.6-0.6,1.5-0.5,1.7,0.3c0.1,0.3-0.1,0.7-0.3,1
			c-0.3,0.6-0.8,1.1-1.2,1.6c-3.8,4.9-5.1,10.4-4.7,16.4c0.2,3.3,1.3,6.5,2.7,9.5c0.1,0.3,0.3,0.5,0.4,0.8c0.1,0.5,0,0.9-0.4,1.1
			c-0.4,0.2-0.9,0.1-1.3-0.3c-0.1-0.2-0.2-0.3-0.3-0.5c-1.9-4-3.1-8.1-3.1-12.7c0.2-5.6,1.6-11,5.3-15.6
			C159.3,106,159.7,105.3,160.2,104.8z M154.4,85.9c2-5.2,5-9.7,9.3-13.3c0.4-0.3,0.7-0.7,1.1-1c0.5-0.4,1-0.4,1.4,0
			c0.4,0.4,0.4,0.9,0,1.4c-0.4,0.4-0.8,0.8-1.2,1.2c-5.9,5-9.1,11.5-10.5,19c-0.8,4.1-0.7,8.3-0.5,12.5c0,0.6,0.1,1.3,0.2,1.9
			c0,0.7-0.3,1.1-0.8,1.2c-0.5,0.1-1-0.2-1.1-0.9c-0.1-0.4-0.2-0.7-0.2-1.1c-0.1-1.8-0.2-3.6-0.2-5.1
			C151.7,96.1,152.4,90.9,154.4,85.9z M187.8,162.1c-0.5,0.3-1,0.2-1.4-0.3c-1.8-2.3-4.1-4-6.4-5.7c-4.6-3.2-9.4-6-14.2-8.7
			c-3.2-1.9-6.5-3.7-9.7-5.7c-3-1.8-5.7-3.9-8.2-6.3c-2.8-2.8-5-6-6.4-9.7c-0.3-0.7-0.6-1.4-0.8-2.2c-0.1-0.3-0.2-0.5-0.2-0.7
			c0-0.6,0.2-0.9,0.6-1c0.4-0.2,0.8,0,1.1,0.3c0.2,0.2,0.3,0.5,0.4,0.7c0.3,0.7,0.6,1.4,0.8,2.2c1.4,3.8,3.7,6.9,6.6,9.6
			c2.2,2.1,4.6,3.9,7.3,5.5c4.5,2.7,9.1,5.2,13.5,7.9c3.4,2,6.7,4.1,10,6.3c2.1,1.4,4.1,3,5.9,4.8c0.5,0.5,0.9,1.1,1.3,1.6
			C188.4,161.2,188.2,161.8,187.8,162.1z M196.5,166.6c-1.6-2.1-3.2-4.1-4.7-6.2c-2.3-3.2-3.9-6.6-4.5-10.5c-0.3-2-0.5-4-0.6-5.7
			c0.1-1.9,0.2-3.4,0.4-4.9c0-0.2,0-0.3,0.1-0.5c0.2-0.6,0.5-0.9,1-0.9c0.5,0,0.9,0.5,0.9,1.1c-0.1,1.3-0.2,2.6-0.2,3.8
			c-0.3,6.3,1.4,12.1,5.2,17.1c2.2,2.9,4.3,5.9,6.4,8.8c2,2.8,3.2,5.9,4.2,9.1c0.1,0.3,0.2,0.6,0.2,0.9c0,0.5-0.2,0.8-0.7,1
			c-0.4,0.1-0.9-0.1-1.1-0.5c-0.1-0.2-0.2-0.4-0.3-0.7C201.6,174.2,199.3,170.3,196.5,166.6z M190.8,194.3c0.2-0.3,0.6-0.6,0.9-0.7
			c0.7-0.3,1.5-0.6,2.3-0.7c2.9-0.4,5.9-0.4,8.7,0.6c3.7,1.4,5.6,4.8,4.9,8.6c-0.4,2.3-1.6,4.1-3.3,5.7c-0.3,0.3-0.6,0.5-1,0.9
			c0.4,0.2,0.7,0.3,1.1,0.4c1.7,0.6,3.2,1.6,4.4,2.9c2.2,2.4,2.9,5.2,2,8.4c-0.9,3-2.9,4.5-6,4.7c-0.9,0.1-1.8,0-2.7,0
			c-2.4,0-4.8,0-7.2,0c-0.5,0-1,0-1.5-0.1c-1-0.2-1.4-1.2-0.6-1.9c0.9-0.8,1.2-1.7,1.2-2.8c0-2.2,0.1-4.5,0.1-6.7
			c0-4-0.1-8-0.2-11.9c0-1-0.1-2-0.3-2.9c-0.2-1.3-0.4-1.4-1.6-1.7C190.6,196.8,190,195.4,190.8,194.3z M206.3,274.7
			c0,0.6-0.4,1-1.1,1c-0.2,0-0.4,0-0.6,0c-2.9,0-5.7,0-8.6,0c0,0,0,0.1,0,0.1c-3,0-5.9,0-8.9,0c-0.2,0-0.4,0-0.6-0.1
			c-0.5-0.1-0.8-0.5-0.8-0.9c0-0.4,0.3-0.8,0.7-0.9c0.3-0.1,0.7-0.1,1-0.1c1.8,0,3.5,0,5.3,0c4,0,8,0,11.9-0.1c0.2,0,0.4,0,0.6,0
			C205.9,273.8,206.3,274.1,206.3,274.7z M181.7,199.9c-0.5,1.4-1.6,2.2-3.2,2.1c-0.3,0-0.6,0-0.9,0c-6.3-0.3-11.4-2.8-15.5-7.6
			c-2.7-3.2-4.4-6.9-5.5-10.8c-0.9-3.3-1.7-6.7-2.5-10c-0.4-1.6-0.7-3.2-1.1-4.8c-0.4-1.5,0.5-2.7,2.3-2.2c0.7,0.2,1.4,0.4,2.1,0.6
			c6.7,2.4,13,5.7,18.3,10.5c2.4,2.2,4.6,4.5,6.5,7.1c1,1.4,1.8,2.8,2.4,4.5c0.3,0.8,0.4,1.6,0.1,2.5
			C183.7,194.4,182.7,197.1,181.7,199.9z M181.5,234.8c-0.1-0.9,0.4-1.4,1.3-1.6c1.3-0.2,2.1,0.3,2.5,1.6c0.6,2.4,1.1,4.8,1.7,7.2
			c0.9,4.1,1.9,8.3,2.8,12.4c0.1,0.3,0.2,0.5,0.4,0.7c0.2-1.5,0.4-2.9,0.6-4.4c0.6-4.2,1.1-8.4,1.7-12.5c0-0.1,0.1-0.3,0.1-0.4
			c0.3-1.8,0.9-2.1,2.8-1.9c0.8,0.1,1.2,0.7,1.3,1.3c0.3,1.3,0.6,2.6,0.8,3.9c0.8,4.6,1.5,9.1,2.2,13.7c0.1,0.4,0.2,0.7,0.3,1.1
			c0.1,0,0.1,0,0.2,0c0-0.2,0.1-0.3,0.1-0.5c0.3-5.9,0.7-11.9,1-17.8c0.1-1.2,0.1-2.4,0.2-3.5c0-0.5,0.2-0.9,0.4-1.4
			c0.2-0.5,0.6-0.7,1.1-0.6c0.5,0.1,0.8,0.4,0.8,0.9c0,0.2,0,0.5,0,0.7c-0.3,6.1-0.7,12.3-1.1,18.4c-0.2,2.8-0.3,5.6-0.6,8.4
			c-0.1,1.3-0.5,2.7-0.8,4c-0.2,1-0.9,1.4-2,1.4c-1.1,0-1.7-0.3-2-1.4c-0.5-2-0.9-3.9-1.3-5.9c-0.6-2.7-1.1-5.4-1.7-8
			c-0.1-0.3-0.2-0.6-0.3-0.9c-0.1,0-0.1,0-0.2,0c-0.1,0.3-0.1,0.6-0.2,0.8c-0.6,4.4-1.2,8.8-1.8,13.2c0,0.3-0.1,0.7-0.2,1
			c-0.3,0.8-0.9,1.2-1.7,1.2c-0.8,0-1.3-0.4-1.5-1.1c-0.7-2.1-1.5-4.3-2.1-6.5c-2-7.2-3.5-14.6-4.9-21.9
			C181.7,236,181.6,235.4,181.5,234.8z M197.5,293.9c0,0.5-0.3,0.9-0.9,1c-0.5,0.1-1-0.2-1.1-0.7c-0.4-1.3-1.3-1.4-2.5-1.3
			c-1,0.1-1.9,0-3,0c0.2,5.4,0.4,10.7,0.6,16c1.4,0.4,2.4,0.1,3.2-1c0.3-0.4,0.7-0.8,1.2-0.7c0.5,0.1,0.8,0.5,0.8,1.2
			c0,1.2,0,2.4-0.1,3.6c0,0.7-0.4,1.1-0.9,1.2c-0.5,0.1-0.9-0.2-1.2-0.9c-0.2-0.6-0.6-0.9-1.2-0.8c-0.6,0-1.1,0-1.8,0
			c0,0.3-0.1,0.5-0.1,0.7c0.1,2.3,0.2,4.7,0.3,7c0,0.4,0.1,0.7,0.1,1.1c0,0.4,0.2,0.7,0.6,0.9c0.6,0.4,0.8,0.7,0.7,1.2
			c-0.1,0.5-0.5,0.8-1.2,0.8c-1.9,0-3.8,0-5.7,0c-0.2,0-0.5-0.1-0.7-0.2c-0.8-0.3-1.1-1.2-0.4-1.7c1.1-0.9,1.1-2,1.1-3.3
			c-0.3-6.9-0.6-13.8-0.9-20.7c-0.1-1.3-0.1-2.7-0.1-4c0-0.4,0.1-0.9,0.2-1.3c0.2-0.7,0.8-1.2,1.6-1.2c2.9-0.1,5.8-0.3,8.7-0.4
			c0.3,0,0.7,0,1,0c1,0.2,1.4,0.6,1.6,1.6C197.6,292.6,197.5,293.2,197.5,293.9z M212.4,359.7c-1.1-0.2-2.2-0.6-3.2-1.3
			c-2-1.5-3.4-3.5-4.1-6c-0.1-0.4-0.1-0.9-0.2-1.1c0-1.5,1-2.4,2.3-1.5c0.9,0.6,1.8,1.2,2.5,2c1.7,1.7,2.9,3.6,3.8,5.8
			c0.1,0.2,0.2,0.5,0.2,0.8C213.9,359.2,213.3,359.8,212.4,359.7z M214.3,340.8c-0.3,0.1-0.7,0.2-1,0.2c-1.4,0-2.8,0-4.2,0
			c-0.2,0-0.5,0-0.7-0.1c-0.6-0.1-1-0.5-1.1-0.9c-0.1-0.5,0.3-0.9,0.8-1.1c0.3-0.1,0.7-0.3,1.1-0.4c-1.6-3.2-3.2-6.4-4.8-9.6
			c-0.1,0-0.1,0-0.2,0c0,0.2,0,0.4,0,0.6c0.1,2.4,0.1,4.7,0.2,7.1c0,0.7,0.2,1.4,0.6,2c0.6,1,0.2,1.7-0.9,1.7c-1.4,0-2.8,0-4.2,0
			c-0.4,0-0.9-0.1-1.3-0.2c-0.4-0.1-0.7-0.3-0.7-0.8c-0.1-0.4,0.1-0.9,0.5-1c1.2-0.4,1.3-1.4,1.3-2.4c0.1-1.7,0-3.4,0-5.2
			c-0.1-7.1-0.2-14.1-0.2-21.2c0-4.3,0.1-8.6,0.1-13c0-0.5,0.1-1.1,0.1-1.6c0.1-1.2,0.5-1.7,1.7-1.9c0.9-0.1,1.8-0.1,2.7-0.1
			c1,0.1,2.1,0.2,3.1,0.4c2.7,0.5,4.6,2,5.7,4.5c0.9,2.1,1.3,4.4,1.3,6.7c0,2.8-0.5,5.4-1.5,8c-0.7,1.8-1.7,3.3-3.3,4.4
			c-1.5,1.1-3,2.2-4.6,3.3c0.2,0.5,0.5,1.2,0.8,1.8c2.3,5,4.6,9.9,6.9,14.9c0.3,0.7,0.7,1.2,1.4,1.5c0.2,0.1,0.4,0.2,0.5,0.3
			C215.1,339.6,215,340.4,214.3,340.8z M219.4,358.1c-0.8,1.2-1.6,1.3-2.5,0.2c-0.3-0.4-0.5-0.8-0.7-1.2c-1.3-3.6-1.6-7.3-0.6-11
			c0.2-0.6,0.4-1.1,1-1.3c0.7-0.2,1.2,0.2,1.6,0.6c0.3,0.4,0.6,0.7,0.8,1.2c1.1,2.1,1.6,4.3,1.7,6.2
			C220.8,355,220.4,356.6,219.4,358.1z M227.6,356.9c-0.7,0.8-1.6,1.3-2.6,1.7c-1,0.4-1.7,0-1.9-1c-0.1-0.6-0.2-1.4-0.1-2
			c0.6-2.8,1.9-5.3,3.9-7.4c0.2-0.2,0.3-0.3,0.5-0.5c0.8-0.6,1.7-0.5,2.1,0.4c0.3,0.8,0.5,1.7,0.7,2.5
			C230,353.1,229.3,355.2,227.6,356.9z M230.9,340.6c-0.3,0-0.7,0-1,0c-3.4-0.1-6.9-0.1-10.3-0.2c-0.5,0-1,0-1.5-0.1
			c-0.9-0.1-1.4-1-1-1.8c0,0,0-0.1,0-0.1c1-1.4,1-3,1-4.7c0-8.6,0.1-17.3,0.1-25.9c0-3.2-0.2-6.4-0.3-9.6c0-0.5-0.1-1.1-0.3-1.6
			c-0.2-0.7-0.5-1.4-1.3-1.7c-0.7-0.3-0.9-0.7-0.8-1.2c0.1-0.6,0.6-0.9,1.1-1c0.3-0.1,0.6-0.1,0.9-0.1c3.2,0,6.4,0.1,9.6,0.2
			c0.8,0,1.4,0.5,1.5,1.3c0.1,0.9,0.2,1.9,0.2,2.8c0,0.6-0.4,0.9-0.9,0.9c-0.5,0-0.9-0.2-1.1-0.8c0,0,0-0.1,0-0.1
			c-0.1-0.4-0.1-1-0.4-1.2c-0.4-0.3-0.9-0.3-1.4-0.3c-0.8-0.1-1.6,0-2.5,0c-0.2,7.4,0.1,14.8,0.2,22.2c1.2,0.3,2.3,0.3,3.5,0.1
			c0.3-0.1,0.6-0.4,0.9-0.6c0.2-0.2,0.4-0.5,0.6-0.7c0.3-0.5,0.7-0.7,1.3-0.6c0.6,0.2,0.8,0.6,0.8,1.2c0,0.3,0.1,0.6,0,0.9
			c-0.1,1.2-0.2,2.5-0.3,3.7c-0.1,0.7-0.4,1.1-0.9,1.2c-0.6,0.1-1-0.2-1.2-0.7c-0.3-0.7-0.8-0.9-1.5-1c-1-0.1-1.9-0.1-3-0.2
			c0.2,5.3,0.4,10.4,0.6,15.6c1.8,0.2,3.6,0.5,5.4,0.2c1-0.1,1.3-0.5,1.4-1.5c0-0.4,0-0.8,0.2-1.2c0.1-0.3,0.5-0.5,0.8-0.6
			c0.4-0.1,0.8,0.2,0.9,0.6c0.1,0.2,0.1,0.5,0.2,0.8c0.1,1.2,0.2,2.4,0.3,3.6c0,0.2,0,0.3,0,0.5
			C232.3,340.1,231.9,340.5,230.9,340.6z M244.6,323.2c-0.1,1.1-0.5,1.6-1.6,1.7c-1.2,0.1-2.4,0.2-3.5,0.2c-1.4,0-2.8,0-4.1,0
			c-0.4,0-0.9-0.1-1.3-0.2c-0.7-0.2-1.1-1-0.5-1.6c0.7-0.8,0.7-1.7,0.7-2.6c-0.3-5.7-0.6-11.3-0.8-17c-0.1-3-0.2-6.1-0.2-9.1
			c0-0.6-0.1-1.3-0.1-1.9c0-0.7-0.1-1.4-1-1.6c-0.4-0.1-0.6-0.5-0.5-0.9c0-0.4,0.3-0.8,0.7-0.9c0.3-0.1,0.7-0.1,1-0.1
			c3.1,0.1,6.3,0.1,9.4,0.2c1.1,0,1.6,0.5,1.7,1.6c0.1,0.5,0.1,1,0.1,1.5c0,0.5-0.2,0.9-0.7,1.1c-0.5,0.2-1,0-1.2-0.7
			c-0.2-0.6-0.6-0.8-1.2-0.8c-1.2-0.1-2.3-0.2-3.7-0.3c0.1,5.1,0.2,10,0.3,15.1c0.9-0.1,1.8-0.1,2.5-0.3c0.4-0.1,0.8-0.4,1.2-0.7
			c0.2-0.1,0.3-0.4,0.5-0.5c0.7-0.5,1.5-0.3,1.8,0.5c0,0.1,0.1,0.2,0.1,0.3c0,1.1,0.1,2.2,0,3.3c-0.1,1-1,1.4-1.8,0.8
			c-0.9-0.7-1.8-0.8-2.9-0.8c-0.4,0-0.8,0-1.3,0c0,4.4,0.2,8.6,0.6,12.9c1.1,0.2,2.1,0.1,3.2-0.1c0.4-0.1,0.7-0.4,0.7-0.8
			c0-0.3,0.1-0.6,0.1-0.9c0.1-0.5,0.5-0.8,0.9-0.8c0.5,0,0.8,0.3,1,0.7c0,0.2,0.1,0.3,0.1,0.5C244.6,321.8,244.6,322.5,244.6,323.2z
			 M247.1,189.2c1.1-1.6,2.4-3,3.9-4.2c3.9-3.1,8.2-5.4,12.8-7.2c2.7-1.1,5.4-2.2,8.1-3.4c1.5-0.7,2.9-1.6,4.4-2.3
			c0.7-0.4,1.3-0.8,2-1c1.9-0.8,3.1-0.2,3.7,1.8c0.3,1.3,0.4,2.5,0.2,3.8c-0.4,2.7-1.4,5.3-2.5,7.8c-0.6,1.4-1.3,2.8-2.1,4.2
			c-2.6,5.1-6.7,8.6-11.9,11c-3.5,1.6-7.1,2.8-11,3.4c-1,0.2-1.9,0.2-2.9,0.3c0,0,0,0,0-0.1c-0.2,0-0.4,0-0.6,0
			c-1.7,0-3-0.7-3.7-2.3c-1.1-2.4-1.8-4.8-1.9-7.4C245.6,192,246.2,190.6,247.1,189.2z M244.9,273.1c0.3,0,0.6,0,0.9,0
			c0.4,0.1,0.7,0.4,0.8,0.8c0.1,0.5-0.2,0.8-0.6,1c-0.3,0.1-0.7,0.1-1,0.1c-2.9,0-5.7,0-8.6,0c0-0.1,0-0.2,0-0.2
			c-3.5,0.2-7,0.3-10.5,0.5c-0.3,0-0.6,0.1-0.9,0c-0.5-0.1-0.8-0.4-0.8-0.9c0-0.5,0.2-0.8,0.6-0.9c0.3-0.1,0.7-0.2,1-0.2
			c3.3-0.1,6.5-0.3,9.8-0.3C238.7,273,241.8,273,244.9,273.1z M242.2,241.5c1.1,3.8,1.6,7.7,1.3,11.7c-0.3,4.7-2.5,8.3-6.3,11
			c-1.8,1.3-3.9,1.9-6.2,2.1c-1.2,0.1-1.9-0.5-2.1-1.8c-0.1-0.9-0.2-1.8-0.2-2.7c-0.2-4.3-0.3-8.6-0.5-12.9c0,0,0,0,0.1,0
			c-0.1-4.2-0.3-8.5-0.4-12.7c0-0.9,0-1.8,0-2.6c0.1-1.1,0.6-1.7,1.7-1.8c0.8-0.1,1.7,0,2.5,0.2
			C237.3,233.2,240.8,236.4,242.2,241.5z M245.1,164.4c-1.6,3.1-3.3,6.2-4.8,9.3c-0.8,1.8-1.4,3.6-2.1,5.5c-0.2,0.6-0.2,1.2-0.3,1.8
			c-0.1,0.9-0.5,1.4-1.1,1.3c-0.6,0-0.9-0.5-0.9-1.3c0-0.1,0-0.1,0-0.2c0,0-0.1,0-0.1,0c0.3-1.1,0.4-2.3,0.8-3.3
			c0.9-2.3,1.9-4.7,3-6.9c1.2-2.5,2.6-4.9,3.9-7.3c2.3-4.3,4.3-8.8,5.4-13.6c0.6-2.6,0.9-5.2,1.4-7.9c0.1-0.3,0.1-0.7,0.2-1
			c0.2-0.5,0.5-0.7,1-0.7c0.5,0,0.8,0.4,0.9,1c0,0.2,0,0.3,0,0.5c-0.5,3.5-0.9,7.1-2,10.5C249,156.3,247.2,160.4,245.1,164.4z
			 M298.2,124.1c-3.4,6-8.1,10.9-13.5,15.1c-5.2,4.1-10.8,7.5-16.5,10.8c-2.6,1.5-5.2,3.1-7.6,4.8c-3.4,2.3-6.4,5.1-8.7,8.5
			c-0.1,0.2-0.3,0.4-0.4,0.5c-0.4,0.3-0.8,0.4-1.2,0.1c-0.4-0.3-0.5-0.7-0.3-1.2c0.1-0.3,0.3-0.6,0.5-0.9c2.3-3.2,5-6,8.3-8.2
			c3.2-2.2,6.5-4.1,9.8-6.1c5.6-3.3,11.1-6.7,16.1-10.8c4.5-3.7,8.5-7.9,11.5-13c0.3-0.5,0.6-1,0.9-1.4c0.3-0.4,0.7-0.4,1.1-0.3
			c0.4,0.2,0.6,0.5,0.6,1.1C298.6,123.4,298.4,123.7,298.2,124.1z"/>
		<path class="st19" d="M210.4,307.1c0.2-2.1,0.1-4.1-0.4-6.1c-0.5-2.1-2.7-4.6-5.6-4.5c-0.1,6.6-0.3,13.2-0.4,19.9
			c0.1,0.1,0.2,0.1,0.3,0.2c0.6-0.3,1.2-0.6,1.7-1C208.6,313.4,210.1,310.6,210.4,307.1z"/>
		<path class="st19" d="M199.6,222c2,0.1,3.9,0.2,5.7-0.6c1.3-0.6,2.2-1.6,2.4-3c0.4-2.8-0.7-4.7-2.9-6c-1.7-1-3.6-1.3-5.6-1.6
			C199.3,214.6,199.5,218.3,199.6,222z"/>
		<path class="st19" d="M204.1,202.7c0.6-2-0.1-3.8-1.8-5c-0.9-0.7-2-1.1-3.1-1.3c-0.2-0.1-0.5-0.1-0.8-0.1c0.2,3.7,0.4,7.2,0.6,11
			C201.5,206.5,203.4,205.2,204.1,202.7z"/>
		<path class="st19" d="M233.5,235.6c-0.1,9.2,0.1,18.2,0.5,27.1c0.2,0,0.3,0,0.3,0c3.3-1.9,5.6-4.6,6.3-8.5
			c0.6-3.8,0.3-7.6-0.7-11.3c-0.4-1.7-1.2-3.2-2.3-4.6C236.5,237.1,235.1,236.4,233.5,235.6z"/>
	</g>
	<g>
		<path class="st20" d="M160.3,263.1c-0.4-0.7-1-1.3-1.7-1.8c-0.9-0.7-2-0.5-2.7,0.4c-0.2,0.3-0.5,0.6-0.6,0.9
			c-2,4.3-4.6,8.3-6.1,12.9c0,0.1-0.1,0.1-0.2,0.2c-1.3-5-3.5-9.6-5.2-14.5c0.2-0.2,0.4-0.4,0.6-0.6c2-1.7,3.8-3.4,5.5-5.5
			c2.9-3.5,4.4-7.5,4.2-12.1c-0.1-2.5-0.7-4.9-1.7-7.2c-1.2-2.7-2.7-5.2-4.6-7.5c-1.3-1.6-2.5-3.1-4.2-4.3c-0.7-0.5-1.5-1-2.3-1.3
			c-1.7-0.6-2.9,0.2-3.1,1.9c-0.1,0.5,0,1,0,1.5c0.4,5.2,0.3,10.5-0.6,15.7c-0.1,0.6-0.2,1.3-0.3,1.9c-0.3,2.7-0.6,5.4-0.2,8.1
			c0,0.1,0,0.2-0.1,0.4c-0.1-0.1-0.2-0.2-0.3-0.4c-1.2-1.6-2.4-3.2-3.7-4.7c-0.6-0.7-1-1.5-0.9-2.4c0.1-3.4-0.4-6.8-1.3-10.1
			c-1.6-5.9-3.9-11.5-7.9-16.2c-3.9-4.6-8.7-7.7-14.8-8.4c-4.7-0.6-9.4-0.3-14,0.4c-0.8,0.1-1.6,0.4-2.4,0.7
			c-1.1,0.5-1.6,1.3-1.5,2.5c0.1,0.5,0.2,1.1,0.4,1.6c1.2,3.6,2.4,7.2,3.7,10.7c2.1,5.7,4.6,11.2,8.8,15.8c2.5,2.7,5.3,5,8.7,6.5
			c4.5,2,9.2,2.3,14,1.5c1.2-0.2,2.3-0.7,3.4-1.1c0.3-0.1,0.5-0.2,0.9-0.4c3.2,3.5,5.8,7.4,8.1,11.6c-0.2-0.1-0.4-0.2-0.6-0.3
			c-2-1.4-4.1-2.1-6.5-2.4c-2.6-0.4-5.3-0.3-7.9,0c-3.8,0.5-7.6,0.8-11.4,0.8c-0.7,0-1.3,0.1-2,0.2c-1.7,0.3-2.6,1.4-2.5,3.1
			c0.1,1,0.3,2,0.7,2.8c2.3,5.2,6.4,7.9,12.1,8.4c3.3,0.2,6.5-0.5,9.5-1.7c2.1-0.9,4.1-1.8,6.2-2.8c1.8-0.9,3.8-1.5,5.8-2.1
			c2,4.2,3.7,8.4,4.7,13.1c-2.2-1.6-4.5-2.1-7-2.3c-0.5,0-1-0.1-1.5,0c-2.6,0.2-5.2,0.4-7.8,0.5c-0.3,0-0.6,0.1-0.9,0.2
			c-1.3,0.3-2,1.2-2.1,2.5c0,0.8,0,1.7,0.3,2.5c0.4,1.2,1,2.3,1.7,3.4c1.6,2.5,4,3.6,6.9,3.5c1.3-0.1,2.5-0.3,3.7-0.6
			c2.3-0.7,4.5-1.7,6.6-2.9c0.4-0.2,0.7-0.6,1.1-0.5c1.1,4.6,0.7,15.1-0.6,17.7c-0.9-0.9-1.6-1.8-2.6-2.5c-3.1-2.4-6.6-3.7-10.5-4.3
			c-0.6-0.1-1.2-0.1-1.8,0c-1.1,0.1-1.7,0.8-1.7,1.9c0,0.9,0.1,1.9,0.2,2.8c0.3,2.9,1.7,5.2,4.3,6.7c3,1.8,6.2,2.1,9.6,1.4
			c0.3-0.1,0.7-0.1,1.2-0.2c-0.6,1.6-1.1,3-1.7,4.4c-1.2,3.1-2.4,6.1-3.5,9.2c-0.3,0.7-0.4,1.5-0.6,2.2c-0.1,0.5,0.1,1,0.5,1.2
			c0.5,0.3,1,0.2,1.4-0.2c0.4-0.4,0.8-0.8,1-1.3c1.9-3.8,3.9-7.6,5.1-11.7c0.4-1.5,1-2.9,1.4-4.3c0.4,0,0.7,0,0.9,0
			c3.7-0.2,6.2-2.2,7.6-5.5c0.3-0.7,0.4-1.5,0.4-2.2c-0.1-1.1-0.3-2.2-0.6-3.2c-0.2-0.9-1.1-1.2-1.9-0.7c-0.2,0.1-0.3,0.3-0.5,0.4
			c-1.2,1.3-2.4,2.5-3.6,3.8c-0.2,0.2-0.3,0.3-0.7,0.6c1-5.9,0.8-11.5,0-17c1.6-1.1,3.1-2,4.6-3c1.9-1.3,3.7-2.8,4.9-4.8
			C162.4,271.9,162.7,267.5,160.3,263.1z"/>
		<path class="st20" d="M271.7,263.1c0.4-0.7,1-1.3,1.7-1.8c0.9-0.7,2-0.5,2.7,0.4c0.2,0.3,0.5,0.6,0.6,0.9c2,4.3,4.6,8.3,6.1,12.9
			c0,0.1,0.1,0.1,0.2,0.2c1.3-5,3.5-9.6,5.2-14.5c-0.2-0.2-0.4-0.4-0.6-0.6c-2-1.7-3.8-3.4-5.5-5.5c-2.9-3.5-4.4-7.5-4.2-12.1
			c0.1-2.5,0.7-4.9,1.7-7.2c1.2-2.7,2.7-5.2,4.6-7.5c1.3-1.6,2.5-3.1,4.2-4.3c0.7-0.5,1.5-1,2.3-1.3c1.7-0.6,2.9,0.2,3.1,1.9
			c0.1,0.5,0,1,0,1.5c-0.4,5.2-0.3,10.5,0.6,15.7c0.1,0.6,0.2,1.3,0.3,1.9c0.3,2.7,0.6,5.4,0.2,8.1c0,0.1,0,0.2,0.1,0.4
			c0.1-0.1,0.2-0.2,0.3-0.4c1.2-1.6,2.4-3.2,3.7-4.7c0.6-0.7,1-1.5,0.9-2.4c-0.1-3.4,0.4-6.8,1.3-10.1c1.6-5.9,3.9-11.5,7.9-16.2
			c3.9-4.6,8.7-7.7,14.8-8.4c4.7-0.6,9.4-0.3,14,0.4c0.8,0.1,1.6,0.4,2.4,0.7c1.1,0.5,1.6,1.3,1.5,2.5c-0.1,0.5-0.2,1.1-0.4,1.6
			c-1.2,3.6-2.4,7.2-3.7,10.7c-2.1,5.7-4.6,11.2-8.8,15.8c-2.5,2.7-5.3,5-8.7,6.5c-4.5,2-9.2,2.3-14,1.5c-1.2-0.2-2.3-0.7-3.4-1.1
			c-0.3-0.1-0.5-0.2-0.9-0.4c-3.2,3.5-5.8,7.4-8.1,11.6c0.2-0.1,0.4-0.2,0.6-0.3c2-1.4,4.1-2.1,6.5-2.4c2.6-0.4,5.3-0.3,7.9,0
			c3.8,0.5,7.6,0.8,11.4,0.8c0.7,0,1.3,0.1,2,0.2c1.7,0.3,2.6,1.4,2.5,3.1c-0.1,1-0.3,2-0.7,2.8c-2.3,5.2-6.4,7.9-12.1,8.4
			c-3.3,0.2-6.5-0.5-9.5-1.7c-2.1-0.9-4.1-1.8-6.2-2.8c-1.8-0.9-3.8-1.5-5.8-2.1c-2,4.2-3.7,8.4-4.7,13.1c2.2-1.6,4.5-2.1,7-2.3
			c0.5,0,1-0.1,1.5,0c2.6,0.2,5.2,0.4,7.8,0.5c0.3,0,0.6,0.1,0.9,0.2c1.3,0.3,2,1.2,2.1,2.5c0,0.8,0,1.7-0.3,2.5
			c-0.4,1.2-1,2.3-1.7,3.4c-1.6,2.5-4,3.6-6.9,3.5c-1.3-0.1-2.5-0.3-3.7-0.6c-2.3-0.7-4.5-1.7-6.6-2.9c-0.4-0.2-0.7-0.6-1.1-0.5
			c-1.1,4.6-0.7,15.1,0.6,17.7c0.9-0.9,1.6-1.8,2.6-2.5c3.1-2.4,6.6-3.7,10.5-4.3c0.6-0.1,1.2-0.1,1.8,0c1.1,0.1,1.7,0.8,1.7,1.9
			c0,0.9-0.1,1.9-0.2,2.8c-0.3,2.9-1.7,5.2-4.3,6.7c-3,1.8-6.2,2.1-9.6,1.4c-0.3-0.1-0.7-0.1-1.2-0.2c0.6,1.6,1.1,3,1.7,4.4
			c1.2,3.1,2.4,6.1,3.5,9.2c0.3,0.7,0.4,1.5,0.6,2.2c0.1,0.5-0.1,1-0.5,1.2c-0.5,0.3-1,0.2-1.4-0.2c-0.4-0.4-0.8-0.8-1-1.3
			c-1.9-3.8-3.9-7.6-5.1-11.7c-0.4-1.5-1-2.9-1.4-4.3c-0.4,0-0.7,0-0.9,0c-3.7-0.2-6.2-2.2-7.6-5.5c-0.3-0.7-0.4-1.5-0.4-2.2
			c0.1-1.1,0.3-2.2,0.6-3.2c0.2-0.9,1.1-1.2,1.9-0.7c0.2,0.1,0.3,0.3,0.5,0.4c1.2,1.3,2.4,2.5,3.6,3.8c0.2,0.2,0.3,0.3,0.7,0.6
			c-1-5.9-0.8-11.5,0-17c-1.6-1.1-3.1-2-4.6-3c-1.9-1.3-3.7-2.8-4.9-4.8C269.6,271.9,269.3,267.5,271.7,263.1z"/>
	</g>
</g>
</svg>
